<svg width="408" height="107" viewBox="0 0 408 107" fill="none" xmlns="http://www.w3.org/2000/svg">
<path d="M28.3008 52.1456L49.4988 39.9484V36.498L28.3008 48.6975V52.1456Z" fill="#00FFA8"/>
<path d="M28.3008 45.2469L49.4988 33.0474V29.5977L28.3008 41.7966V45.2469Z" fill="#00FFA8"/>
<path d="M28.3008 38.3465L49.4988 26.1476V22.6973L28.3008 34.8967V38.3465Z" fill="#00FFA8"/>
<path d="M49.4988 15.7969L28.3008 27.9958V31.4456L49.4988 19.2461V15.7969Z" fill="#00FFA8"/>
<path d="M28.3008 59.0466L37.4017 53.8097L40.3996 52.0845L49.4988 46.8471V43.3984L28.3008 55.5968V59.0466Z" fill="#00FFA8"/>
<path d="M49.4994 64.0996C45.4673 66.419 41.434 68.7389 37.4023 71.0605V74.512L49.4994 67.5483V64.0996Z" fill="#00FFA8"/>
<path d="M37.4023 81.4113L49.4994 74.4504V71L37.4023 77.9604V81.4113Z" fill="#00FFA8"/>
<path d="M37.4023 88.3091L40.4002 86.5851L49.4994 81.3471V77.8984L37.4023 84.8605V88.3091Z" fill="#00FFA8"/>
<path d="M76.8038 9.49354C72.1744 6.04713 66.9007 3.41716 61.2036 1.80902C57.0365 0.627389 52.6418 0 48.1021 0C21.5791 0 0 21.5062 0 47.9404C0 64.8759 8.85927 79.7892 22.2007 88.3177V82.6212C22.2007 82.6212 22.199 82.62 22.1967 82.62V59.2339L37.0783 67.7951C41.2183 65.4122 45.3583 63.0303 49.4989 60.6479V57.1976L40.3997 62.4356L37.4018 64.1602L37.0721 64.3487L34.0742 62.6246L37.4018 60.7098L40.3997 58.9847L49.4989 53.7478V50.298L40.3997 55.5354L37.4018 57.2595L31.0758 60.9L28.3009 59.3014L20.6995 54.9283L7.29032 62.6432C5.61975 58.0506 4.70458 53.1013 4.70458 47.9404C4.70458 24.0889 24.171 4.68825 48.1021 4.68825C51.1881 4.68825 54.1995 5.01179 57.1008 5.62568C59.7306 6.17936 62.2718 6.97161 64.7039 7.97937C65.0895 8.13861 65.4746 8.30741 65.8602 8.48128C66.4829 8.75812 67.0938 9.04846 67.7007 9.36244C68.11 9.56444 68.5187 9.77995 68.9179 10.0011C69.544 10.3421 70.1617 10.6994 70.7635 11.0696C79.979 16.7139 86.9278 25.6931 89.9008 36.3081L75.3038 27.9061L72.3635 29.5987L67.7007 32.281L64.7039 34.0067L61.373 35.9226L56.3545 38.812L55.6013 39.2436V90.4987C53.4131 90.914 51.7905 91.0873 49.4989 91.1587V89.7188V87.6881V84.7999L39.8532 90.3276L37.4018 89.7188V89.8595V92.7083V94.6822C40.844 95.4649 44.4245 95.8796 48.1016 95.8796C58.8493 95.8796 68.7841 92.3494 76.8005 86.39V80.3536C76.8005 80.3536 76.8005 80.3547 76.7982 80.3553V32.2101L90.6861 39.6082C90.7657 39.6577 90.6009 39.5705 90.6861 39.6082L95.8791 42.3743C94.3135 28.9465 87.1632 17.1927 76.8038 9.49354Z" fill="#00FFA8"/>
<path d="M138.723 73.4883C151.568 73.4883 160.723 65.9579 160.723 54.9577V53.2597H152.824V54.4409C152.824 61.4545 147.139 66.1056 139.018 66.1056C129.863 66.1056 122.776 59.3873 122.776 48.5348C122.776 37.6822 129.568 30.8163 139.018 30.8163C146.844 30.8163 152.676 35.5413 152.676 42.9978C152.676 43.3669 152.676 43.9575 152.602 44.622H160.428C160.502 43.736 160.575 42.7763 160.575 42.2595C160.575 31.0378 151.495 23.4336 138.723 23.4336C124.105 23.4336 113.769 33.0311 113.769 48.5348C113.769 63.9646 124.253 73.4883 138.723 73.4883ZM168.305 31.9976H176.795V23.8766H168.305V31.9976ZM168.379 72.75H176.648V36.2795H168.379V72.75ZM201.557 73.193C204.584 73.193 207.094 72.6762 208.201 72.307V65.7364C207.168 66.0318 204.805 66.4009 202.738 66.4009C197.718 66.4009 195.946 64.0384 195.946 59.3135V42.9978H208.496V36.2795H195.946V28.0109H189.08L188.711 33.4741C188.489 35.5413 187.973 36.2795 186.57 36.2795H181.919V42.9978H187.677V59.7565C187.677 67.8036 191.59 73.193 201.557 73.193ZM223.433 88.1798C230.668 88.1798 234.212 84.4146 238.272 73.4883L252.152 36.2795H244.031L233.769 64.4076H233.621L222.03 36.2795H212.507L228.306 72.75H230.299C227.567 79.5421 225.796 81.4616 221.957 81.4616C220.111 81.4616 218.413 81.0186 217.379 80.7233V87.2201C218.413 87.5892 220.628 88.1798 223.433 88.1798ZM258.435 72.75H278.589C292.764 72.75 301.623 63.9646 301.623 48.3871C301.623 32.9573 292.247 24.1719 277.039 24.1719H258.435V72.75ZM267.294 65.3673V31.5546H277.408C286.71 31.5546 292.838 37.3131 292.838 48.3871C292.838 59.535 287.153 65.3673 278.442 65.3673H267.294ZM342.642 72.75H352.904L333.192 24.1719H322.413L302.627 72.75H311.782L315.916 61.8236H338.581L342.642 72.75ZM318.131 55.9175L327.212 31.7023H327.359L336.366 55.9175H318.131ZM379.098 73.4883C393.272 73.4883 404.346 63.9646 404.346 48.2395C404.346 32.8097 393.272 23.4336 379.098 23.4336C364.997 23.4336 353.923 32.8097 353.923 48.2395C353.923 63.9646 364.997 73.4883 379.098 73.4883ZM379.098 66.1056C370.165 66.1056 362.93 59.3873 362.93 48.2395C362.93 37.3869 370.165 30.8163 379.098 30.8163C388.105 30.8163 395.34 37.3869 395.34 48.2395C395.34 59.3873 388.105 66.1056 379.098 66.1056Z" fill="white"/>
</svg>
